<svg width="90" height="86" viewBox="0 0 90 86" fill="none" xmlns="http://www.w3.org/2000/svg">
<path fill-rule="evenodd" clip-rule="evenodd" d="M35.6453 1.02713C51.8628 -1.71217 67.1939 4.61974 75.3254 15.6045L75.3178 18.7187C66.4867 6.9006 51.5145 0.325695 35.9699 2.9511C13.8334 6.68989 -1.07146 27.6609 2.66638 49.7917C6.40421 71.9207 27.3695 86.8341 49.5061 83.0953C69.0314 79.7969 82.933 63.083 83.3668 44.0008L85.1284 47.1711C83.3184 65.8432 69.2213 81.7437 49.8307 85.0193C26.6367 88.9365 4.65963 73.3112 0.742405 50.1173C-3.17577 26.9224 12.4504 4.94531 35.6444 1.02808L35.6453 1.02713Z" fill="#3E4095"/>
<path d="M36.96 34.6003V26.8921C36.96 26.4934 36.924 26.1849 36.8518 25.9495C36.7787 25.7198 36.6345 25.5328 36.4228 25.3876C36.2054 25.2424 35.897 25.1399 35.486 25.0677C35.075 24.9947 34.5074 24.9225 33.7946 24.8504V24.3122H51.1701C55.2116 24.3122 58.2803 25.1636 60.3704 26.8617C62.4605 28.5598 63.5065 30.7523 63.5065 33.4347C63.5065 34.5044 63.3128 35.5437 62.9199 36.5461C62.5269 37.5437 61.8444 38.4492 60.8782 39.2531C59.9176 40.0561 58.6249 40.7395 57.0179 41.2891C55.411 41.8453 53.4044 42.2136 51.0135 42.3882V42.4964C54.0157 42.6777 56.4446 43.0707 58.305 43.6743C60.1663 44.2837 61.5977 45.0336 62.6 45.9267C63.5976 46.8218 64.2677 47.7881 64.6113 48.8274C64.9501 49.8601 65.1191 50.8994 65.1191 51.9388C65.1191 54.9049 64.0731 57.3035 61.9773 59.1221C59.8873 60.9464 56.8243 61.8586 52.7827 61.8586H47.5452V61.3213H49.7264C50.7952 61.3213 51.6893 61.0613 52.4087 60.5478C53.1216 60.0286 53.6958 59.3214 54.1248 58.4273C54.5529 57.5332 54.85 56.5062 55.0066 55.3463C55.1699 54.1798 55.2477 52.9544 55.2477 51.6673C55.2477 48.8824 54.7646 46.7069 53.7974 45.1551C52.8368 43.5965 51.3333 42.8163 49.2974 42.8163H47.7806C47.6657 42.635 47.5509 42.4604 47.4303 42.2848H49.1882C50.9043 42.2848 52.1487 41.5662 52.9156 40.1406C53.6825 38.7092 54.0698 36.6543 54.0698 33.9662C54.0698 30.9279 53.7129 28.6499 52.9944 27.1341C52.2816 25.6116 51.0847 24.8504 49.3999 24.8504H46.3435V40.9018C45.2017 39.591 43.8842 38.4492 42.4225 37.4886C40.7795 36.4198 39.052 35.501 37.2514 34.7275L36.9619 34.6003H36.96Z" fill="#3E4095"/>
<path d="M29.0278 25.4968C28.369 25.7378 27.7957 26.0758 27.306 26.4991C26.8219 26.9158 26.4479 27.4473 26.1822 28.0766C25.9221 28.705 25.8253 29.4539 25.8974 30.3176C26.0189 31.804 26.5561 33.0246 27.5224 33.9909C28.4886 34.9581 29.6609 35.8209 31.0448 36.5764C32.4286 37.332 33.9207 38.0562 35.5277 38.7453C37.128 39.4344 38.6324 40.2317 40.0277 41.1438C41.4239 42.056 42.6132 43.1618 43.6042 44.4545C44.6008 45.7473 45.1751 47.3789 45.3317 49.3485C45.4949 51.3541 45.2662 53.1119 44.6369 54.6221C44.0152 56.1322 43.1268 57.4069 41.9735 58.4396C40.825 59.4733 39.4658 60.2763 37.8959 60.8562C36.325 61.4362 34.6753 61.7987 32.9478 61.9373C33.3645 61.6108 33.9625 61.3574 35.1044 60.898C35.8115 60.6142 36.4332 60.2032 36.959 59.6536C37.4906 59.104 37.9016 58.4206 38.2034 57.5996C38.4995 56.7719 38.6021 55.8057 38.5176 54.6999C38.3904 53.1471 37.8408 51.86 36.8746 50.8453C35.9017 49.824 34.7294 48.9356 33.3465 48.181C31.9626 47.4255 30.4705 46.7193 28.8702 46.0672C27.2689 45.4142 25.7712 44.6529 24.3816 43.7958C22.9853 42.9321 21.8017 41.8984 20.8165 40.6911C19.8312 39.4885 19.2579 37.9299 19.107 36.0335C18.9685 34.3354 19.1858 32.8073 19.7544 31.4424C20.322 30.0708 21.144 28.8995 22.2308 27.9266C23.3185 26.9547 24.6227 26.1745 26.1394 25.6012C27.6562 25.0269 29.2992 24.6643 31.0628 24.5258C30.9176 24.8153 30.1449 25.0877 29.0268 25.4987L29.0278 25.4968Z" fill="#E54D38"/>
<path d="M27.2699 59.8644C26.726 58.0581 29.8374 57.1336 29.3837 53.4973C29.0278 50.6337 26.4062 48.5977 23.5416 48.9546C20.6779 49.3115 18.642 51.9331 18.9988 54.7901C19.5427 59.1155 24.7385 61.9184 30.816 61.7494C29.3239 61.291 27.6933 61.2606 27.2699 59.8644Z" fill="#E54D38"/>
<path d="M36.9601 34.6002V31.3503C40.4578 32.2264 43.6546 33.8029 46.3426 36.5033V40.9018C45.2008 39.591 43.8833 38.4491 42.4216 37.4886C40.7786 36.4198 39.0511 35.501 37.2505 34.7274L36.961 34.6002H36.9601Z" fill="#3B3C7A"/>
<path d="M32.9489 61.9373C33.3656 61.6108 33.9636 61.3574 35.1054 60.898C35.8126 60.6142 36.4343 60.2032 36.9601 59.6536C37.4917 59.1041 37.9027 58.4207 38.2045 57.5996C38.5006 56.7719 38.6031 55.8057 38.5187 54.6999C38.3915 53.1471 37.8419 51.86 36.8757 50.8453C35.9028 49.824 34.7305 48.9356 33.3476 48.181C31.9637 47.4255 30.4716 46.7193 28.8713 46.0672C27.27 45.4142 25.7723 44.6529 24.3827 43.7958C22.9864 42.9321 21.8028 41.8984 20.8176 40.6911C19.8323 39.4885 19.259 37.93 19.1081 36.0335C18.9695 34.3354 19.1869 32.8073 19.7555 31.4424C19.8817 31.1405 20.0146 30.8444 20.1721 30.5606C19.1879 37.4297 25.7912 40.9758 32.5512 43.8699C45.3347 49.3494 43.3708 60.0361 32.9499 61.9392L32.9489 61.9373Z" fill="#CE4539"/>
<path fill-rule="evenodd" clip-rule="evenodd" d="M7.30304 46.2172C7.82698 47.7064 8.71351 48.7581 10.1857 49.0998C8.69642 49.6275 7.64474 50.5131 7.30304 51.9824C6.7753 50.4922 5.88878 49.4415 4.42041 49.0998C5.90681 48.5759 6.95849 47.6855 7.30304 46.2172Z" fill="#E54D38"/>
<path fill-rule="evenodd" clip-rule="evenodd" d="M7.11225 34.2956C7.63619 35.7849 8.52271 36.8365 9.99488 37.1782C8.50563 37.706 7.45395 38.5916 7.11225 40.0609C6.58451 38.5716 5.69798 37.5199 4.22961 37.1782C5.71602 36.6543 6.7677 35.764 7.11225 34.2956Z" fill="#E54D38"/>
<path d="M73.1337 18.5593L75.7174 22.0513L74.7938 22.7347L72.2102 19.2427L73.1337 18.5593Z" fill="#606062"/>
<path d="M73.6216 20.1615L74.3297 21.1192L69.3219 24.8247L68.6138 23.868L73.6216 20.1615Z" fill="#606062"/>
<path d="M66.8 18.2232L68.7487 20.3845L67.902 21.1476L65.9534 18.9864L66.8 18.2232Z" fill="#606062"/>
<path d="M70.8491 15.9547L71.393 16.5584L67.826 22.7442L66.9879 21.8149L69.5497 17.6737L65.1683 19.796L64.3292 18.8658L70.8491 15.9547Z" fill="#606062"/>
<path d="M63.7512 14.7018L64.8418 15.2561L64.128 18.751L63.0222 17.9185L63.7512 14.7018Z" fill="#606062"/>
<path d="M64.6046 10.6023L65.5518 11.3161L61.4638 16.7444L60.5165 16.0316L64.6046 10.6023Z" fill="#606062"/>
<path d="M63.2938 13.1813L64.8229 14.3336C64.9225 14.4086 65.026 14.4532 65.1361 14.4655C65.2452 14.4779 65.3525 14.457 65.456 14.401C65.5585 14.3469 65.6543 14.2652 65.7417 14.1551L65.9163 13.9235C66.0046 13.8068 66.0596 13.69 66.0834 13.5723C66.1071 13.4565 66.0995 13.3474 66.0587 13.2449C66.0198 13.1433 65.9476 13.0531 65.8451 12.9763L64.316 11.8249L65.007 10.9071L66.5551 12.0736C66.8531 12.2976 67.0667 12.5529 67.1958 12.8367C67.3249 13.1215 67.3666 13.4186 67.3201 13.729C67.2727 14.0384 67.1379 14.3421 66.912 14.6411L66.7269 14.8869C66.501 15.1878 66.2428 15.4052 65.9571 15.5381C65.6695 15.671 65.3715 15.7137 65.0602 15.6691C64.7488 15.6245 64.4451 15.4897 64.1499 15.2666L62.6018 14.1001L63.2938 13.1822V13.1813Z" fill="#606062"/>
<path d="M57.462 11.6749L60.0124 13.0759L59.4628 14.0753L56.9133 12.6744L57.462 11.6749Z" fill="#606062"/>
<path d="M60.541 8.20288L61.2539 8.59489L59.9165 15.6083L58.8192 15.0056L59.8785 10.2531L56.4368 13.6967L55.3386 13.094L60.541 8.20288Z" fill="#606062"/>
<path d="M52.3857 8.00449L55.5085 9.00301L55.1611 10.0889L52.0383 9.08939L52.3857 8.00449Z" fill="#606062"/>
<path d="M52.7066 5.10094L53.8457 5.46542L51.7765 11.9331L50.6375 11.5686L52.7066 5.10094Z" fill="#606062"/>
<path d="M55.6557 6.04443L56.7938 6.40797L54.7256 12.8766L53.5865 12.5121L55.6557 6.04443Z" fill="#606062"/>
<path d="M46.4934 3.90782L47.6732 4.1005L46.5741 10.8026L45.3943 10.609L46.4934 3.90782Z" fill="#606062"/>
<path d="M46.1687 9.58102L47.8459 9.85628C48.0918 9.89614 48.2911 9.86956 48.4448 9.7718C48.5977 9.67593 48.6916 9.52027 48.7267 9.30481L48.7846 8.95077C48.8103 8.797 48.8027 8.66127 48.7628 8.54167C48.721 8.42303 48.648 8.32621 48.5426 8.24838C48.4372 8.1715 48.3025 8.11834 48.1402 8.09177L46.4582 7.81556L46.6414 6.70028L48.3138 6.97459C48.536 7.01066 48.7163 6.98124 48.8577 6.88158C48.9982 6.78381 49.0855 6.6253 49.1216 6.40794L49.1681 6.12604C49.1994 5.9324 49.1634 5.77105 49.058 5.64481C48.9526 5.51572 48.7903 5.43409 48.5682 5.39802L46.9005 5.12466L47.0847 4.00464L48.8264 4.29034C49.207 4.35298 49.5221 4.47068 49.7718 4.64438C50.0214 4.81808 50.1951 5.03829 50.2948 5.3088C50.3944 5.57741 50.4172 5.88495 50.3593 6.23234L50.3128 6.51425C50.2739 6.75059 50.1942 6.95371 50.0727 7.12077C49.9512 7.28782 49.7946 7.41786 49.6 7.50898C49.4045 7.6001 49.1814 7.64566 48.928 7.64566C49.1861 7.72539 49.3997 7.84403 49.5658 8.00065C49.7319 8.15726 49.8487 8.34425 49.9132 8.56161C49.9796 8.77897 49.9901 9.02006 49.9464 9.28393L49.8866 9.64746C49.8297 9.99486 49.7101 10.2806 49.5278 10.5046C49.3475 10.7286 49.1102 10.8833 48.8179 10.9697C48.5255 11.056 48.1914 11.0684 47.8136 11.0067L45.9836 10.7067L46.1678 9.58197L46.1687 9.58102Z" fill="#606062"/>
<path d="M37.2238 4.06922L38.414 3.96481L39.0101 10.7296L37.8189 10.8349L37.2238 4.06922Z" fill="#606062"/>
<path d="M38.0448 7.01734L39.8311 6.85978C39.9678 6.84744 40.0836 6.80568 40.1785 6.73449C40.2744 6.6633 40.3446 6.56933 40.3902 6.44879C40.4357 6.32919 40.4528 6.19346 40.4395 6.04159L40.4111 5.72077C40.3978 5.56701 40.3589 5.43223 40.2943 5.31832C40.2288 5.20537 40.1443 5.12375 40.0371 5.07059C39.9317 5.01554 39.8083 4.99656 39.6688 5.0089L37.8825 5.16646L37.7819 4.02176L39.5587 3.86514C39.946 3.83097 40.2915 3.87748 40.5905 4.00183C40.8913 4.12712 41.1305 4.32359 41.3109 4.59126C41.4912 4.85703 41.5966 5.1788 41.6289 5.55372L41.6678 5.99508C41.701 6.3719 41.6535 6.70411 41.5225 6.99551C41.3916 7.28691 41.1894 7.51945 40.9132 7.6941C40.637 7.86875 40.3076 7.97316 39.9232 8.00733L38.1463 8.16394L38.0457 7.01924L38.0448 7.01734Z" fill="#606062"/>
<path d="M33.45 10.6033L36.7208 9.80409L36.9932 10.9203L33.7224 11.7195L33.45 10.6033Z" fill="#606062"/>
<path d="M31.598 5.2481L32.7598 4.96429L34.3715 11.561L33.2097 11.8448L31.598 5.2481Z" fill="#606062"/>
<path d="M27.8811 11.43L30.5711 10.3223L31.0048 11.3759L28.3149 12.4836L27.8811 11.43Z" fill="#606062"/>
<path d="M27.1066 6.85406L27.8593 6.54463L32.4827 11.9843L31.3256 12.4608L28.2883 8.65559L28.8122 13.4954L27.6533 13.9728L27.1066 6.85406Z" fill="#606062"/>
<path d="M23.1494 12.5491L23.6012 11.4671L27.5915 14.0327L26.4089 14.7398L23.1494 12.5491Z" fill="#606062"/>
<path d="M20.041 10.6365L21.0671 10.0224L24.5543 15.8494L23.5283 16.4635L20.041 10.6365Z" fill="#606062"/>
<path d="M22.7585 13.5875L22.6455 9.07799L23.8832 8.33669L23.7389 15.0805L22.7585 13.5875Z" fill="#606062"/>
<path d="M14.6278 15.1878L15.557 14.3497L20.5516 16.5489L20.5563 16.735L17.1279 12.9335L17.967 12.1761L22.5116 17.2162L21.5757 18.06L16.6904 15.9642L16.6809 15.7772L20.0115 19.4705L19.1724 20.2279L14.6278 15.1878Z" fill="#606062"/>
<path d="M14.342 22.4262L16.2015 20.188L17.0785 20.9161L15.2191 23.1542L14.342 22.4262Z" fill="#606062"/>
<path d="M11.5175 18.7443L12.0366 18.1188L18.6695 20.7623L17.8693 21.7247L13.4044 19.7827L16.1333 23.8157L15.3322 24.7792L11.5175 18.7443Z" fill="#606062"/>
<path d="M14.0821 27.2536C13.9046 27.5764 13.7015 27.8412 13.4699 28.0471C13.2392 28.255 12.9848 28.4012 12.7077 28.4847C12.4305 28.5692 12.1372 28.5863 11.8268 28.536L11.7737 27.2755C12.0746 27.3096 12.3404 27.2707 12.5701 27.1568C12.7988 27.042 12.9782 26.8683 13.1082 26.63C13.2554 26.3614 13.3133 26.1241 13.281 25.9172C13.2497 25.7093 13.132 25.5499 12.9269 25.4369L12.7191 25.3221C12.5738 25.2424 12.4343 25.2186 12.3014 25.249C12.1676 25.2813 12.0385 25.3468 11.9151 25.4483C11.7917 25.5499 11.6437 25.6885 11.47 25.8679C11.4643 25.8754 11.4576 25.8811 11.4519 25.8868C11.4462 25.8935 11.4424 25.8982 11.4367 25.902L11.3997 25.94C11.1169 26.239 10.8672 26.4715 10.648 26.6329C10.4297 26.7952 10.1668 26.8939 9.86017 26.9281C9.55454 26.9622 9.21094 26.8749 8.83127 26.6661L8.70978 26.5997C8.35763 26.406 8.09661 26.1668 7.92956 25.8802C7.76061 25.5945 7.68942 25.2737 7.71505 24.9168C7.74067 24.558 7.86407 24.1783 8.08618 23.7749C8.23614 23.5025 8.41648 23.2766 8.62435 23.0972C8.83317 22.9188 9.06571 22.7935 9.32294 22.7223C9.58016 22.6511 9.85827 22.6321 10.1554 22.6672L10.2588 23.8755C9.97123 23.8556 9.72349 23.8907 9.51562 23.98C9.3106 24.0692 9.15398 24.2068 9.05052 24.3957C8.91195 24.6482 8.85689 24.875 8.88442 25.0724C8.91289 25.268 9.02205 25.4189 9.20999 25.5224L9.36471 25.6078C9.52227 25.6942 9.67509 25.7217 9.81936 25.6866C9.96364 25.6533 10.0984 25.585 10.2237 25.4834C10.349 25.3809 10.5066 25.2329 10.6954 25.0383C10.7059 25.0259 10.7163 25.0136 10.7287 25.0003C10.7401 24.9889 10.7524 24.9766 10.7638 24.9699C10.7771 24.9595 10.7885 24.9472 10.798 24.9377C10.8074 24.9263 10.8179 24.9139 10.8302 24.8987C11.0922 24.6339 11.3333 24.427 11.5525 24.277C11.7718 24.129 12.0252 24.0416 12.3157 24.0198C12.6042 23.998 12.9279 24.0853 13.2848 24.2818L13.486 24.3919C13.8353 24.5836 14.0925 24.8247 14.2586 25.1142C14.4238 25.4028 14.4931 25.7302 14.4627 26.0938C14.4333 26.4582 14.307 26.8445 14.0821 27.2546V27.2536Z" fill="#606062"/>
<path d="M11.2857 67.5497L8.66223 64.0055L9.60001 63.3117L12.2235 66.8559L11.2857 67.5497Z" fill="#606062"/>
<path d="M10.7903 65.9238L10.0718 64.9519L15.1546 61.1903L15.8731 62.1623L10.7903 65.9238Z" fill="#606062"/>
<path d="M17.7136 67.8905L15.7365 65.6979L16.5955 64.9234L18.5735 67.116L17.7136 67.8905Z" fill="#606062"/>
<path d="M13.6047 70.1932L13.0522 69.581L16.6724 63.3022L17.5228 64.2457L14.9231 68.4487L19.3709 66.295L20.2223 67.2394L13.6047 70.1932Z" fill="#606062"/>
<path d="M20.8088 71.4661L19.7012 70.9032L20.4263 67.3552L21.5483 68.2L20.8088 71.4661Z" fill="#606062"/>
<path d="M19.9422 75.6262L18.9807 74.902L23.1305 69.3921L24.092 70.1163L19.9422 75.6262Z" fill="#606062"/>
<path d="M21.273 73.0084L19.7211 71.839C19.6205 71.7631 19.5142 71.7176 19.4031 71.7052C19.293 71.6929 19.1838 71.7138 19.0785 71.7707C18.9741 71.8258 18.8773 71.9093 18.789 72.0203L18.6115 72.2557C18.5223 72.3744 18.4653 72.4921 18.4425 72.6126C18.4188 72.7303 18.4264 72.8414 18.4672 72.9458C18.5071 73.0483 18.5802 73.1404 18.6836 73.2182L20.2355 74.3876L19.5341 75.3197L17.9623 74.136C17.6595 73.9082 17.4431 73.6501 17.3121 73.3606C17.1811 73.072 17.1393 72.7702 17.1858 72.4551C17.2343 72.1409 17.3709 71.8324 17.5997 71.5287L17.7876 71.279C18.0173 70.9744 18.2783 70.7532 18.5688 70.6175C18.8602 70.4827 19.163 70.439 19.479 70.4846C19.7951 70.5301 20.1036 70.6668 20.4035 70.8927L21.9754 72.0763L21.2739 73.0084H21.273Z" fill="#606062"/>
<path d="M27.192 74.5376L24.6036 73.1157L25.1608 72.102L27.7492 73.5229L27.192 74.5376Z" fill="#606062"/>
<path d="M24.0673 78.0618L23.344 77.6641L24.7013 70.5453L25.8147 71.1576L24.7393 75.9813L28.2322 72.4855L29.3475 73.0977L24.0673 78.0618Z" fill="#606062"/>
<path d="M32.345 78.264L29.1748 77.2493L29.527 76.1473L32.6972 77.162L32.345 78.264Z" fill="#606062"/>
<path d="M32.0184 81.2103L30.8633 80.8411L32.9628 74.2756L34.1189 74.6449L32.0184 81.2103Z" fill="#606062"/>
<path d="M29.0258 80.2525L27.8698 79.8833L29.9703 73.3179L31.1264 73.688L29.0258 80.2525Z" fill="#606062"/>
<path d="M38.3258 82.4214L37.1279 82.2249L38.2432 75.4232L39.4411 75.6196L38.3258 82.4214Z" fill="#606062"/>
<path d="M38.6551 76.6627L36.9533 76.3837C36.7046 76.3429 36.5014 76.3704 36.3458 76.4691C36.1901 76.5669 36.0952 76.7244 36.0601 76.9437L36.0012 77.3034C35.9756 77.46 35.9823 77.5967 36.0231 77.7182C36.0658 77.8378 36.1398 77.9375 36.2461 78.0153C36.3534 78.0931 36.4901 78.1472 36.6543 78.1738L38.3609 78.4538L38.1748 79.5862L36.4777 79.3081C36.2528 79.2711 36.0686 79.3014 35.9262 79.403C35.7839 79.5027 35.6947 79.6631 35.6586 79.8842L35.6121 80.1699C35.5798 80.3664 35.6168 80.5297 35.7241 80.6587C35.8304 80.7897 35.9955 80.8723 36.2205 80.9093L37.9129 81.1865L37.7268 82.3236L35.9595 82.0341C35.5732 81.9705 35.2533 81.8509 34.9999 81.6753C34.7464 81.4997 34.5699 81.2757 34.4693 81.0014C34.3677 80.729 34.3449 80.4167 34.4028 80.0646L34.4493 79.7789C34.4883 79.5397 34.5699 79.3328 34.6933 79.1629C34.8167 78.993 34.9752 78.862 35.1726 78.769C35.371 78.6769 35.5969 78.6304 35.8541 78.6304C35.5921 78.5497 35.3757 78.4291 35.2068 78.2697C35.0378 78.1112 34.9201 77.9204 34.8546 77.7002C34.7873 77.479 34.7768 77.2351 34.8205 76.9665L34.8812 76.5972C34.9391 76.2442 35.0606 75.9547 35.2457 75.7269C35.4289 75.4991 35.67 75.3424 35.9661 75.2542C36.2623 75.1668 36.6021 75.1536 36.9855 75.2162L38.8421 75.5209L38.6551 76.6627Z" fill="#606062"/>
<path d="M47.7339 82.2572L46.5256 82.3635L45.921 75.4972L47.1293 75.3909L47.7339 82.2572Z" fill="#606062"/>
<path d="M46.9006 79.2653L45.0877 79.4248C44.9492 79.4371 44.8315 79.4798 44.7346 79.552C44.6369 79.6241 44.5657 79.719 44.5201 79.8424C44.4736 79.9639 44.4565 80.1016 44.4708 80.2563L44.4993 80.5818C44.5135 80.7384 44.5524 80.8742 44.6179 80.99C44.6843 81.1039 44.7698 81.1874 44.8789 81.2415C44.9862 81.2975 45.1115 81.3165 45.2529 81.3042L47.0658 81.1447L47.1683 82.3065L45.3649 82.465C44.9719 82.4992 44.6217 82.4526 44.318 82.3264C44.0123 82.1992 43.7693 81.9999 43.5862 81.7284C43.403 81.4589 43.2967 81.1314 43.2625 80.7517L43.2226 80.3037C43.1894 79.9222 43.2369 79.5843 43.3707 79.2881C43.5036 78.992 43.7086 78.7566 43.9886 78.5791C44.2686 78.4016 44.6037 78.2962 44.9938 78.2611L46.7972 78.1026L46.8997 79.2644L46.9006 79.2653Z" fill="#606062"/>
<path d="M51.5648 75.6253L48.2446 76.4368L47.9674 75.3035L51.2876 74.4919L51.5648 75.6253Z" fill="#606062"/>
<path d="M53.4442 81.0612L52.2653 81.3488L50.6289 74.6534L51.8078 74.3648L53.4442 81.0612Z" fill="#606062"/>
<path d="M57.2171 74.7862L54.4863 75.911L54.0459 74.8413L56.7767 73.7165L57.2171 74.7862Z" fill="#606062"/>
<path d="M58.0021 79.4315L57.239 79.7457L52.5463 74.2234L53.7204 73.7403L56.8033 77.6024L56.2718 72.6895L57.4478 72.2054L58.0021 79.4315Z" fill="#606062"/>
<path d="M62.0191 73.6501L61.5606 74.7483L57.5115 72.1447L58.7103 71.4271L62.0191 73.6501Z" fill="#606062"/>
<path d="M65.1741 75.5912L64.1328 76.2148L60.5934 70.3005L61.6346 69.6769L65.1741 75.5912Z" fill="#606062"/>
<path d="M62.4158 72.5955L62.5306 77.1734L61.2739 77.9261L61.421 71.0816L62.4158 72.5955Z" fill="#606062"/>
<path d="M70.6687 70.9725L69.7262 71.8229L64.6557 69.5905L64.6519 69.4026L68.1316 73.2609L67.2792 74.0288L62.6663 68.9137L63.6173 68.0566L68.5758 70.1847L68.5853 70.3745L65.2044 66.6253L66.0558 65.8564L70.6687 70.9725Z" fill="#606062"/>
<path d="M70.9583 63.6259L69.0714 65.8972L68.182 65.1578L70.069 62.8865L70.9583 63.6259Z" fill="#606062"/>
<path d="M73.8257 67.3628L73.2989 67.9978L66.5664 65.3135L67.3779 64.3368L71.9112 66.3082L69.1415 62.2145L69.954 61.2368L73.8257 67.3628Z" fill="#606062"/>
<path d="M71.223 58.7253C71.4034 58.3979 71.6093 58.1292 71.8447 57.9204C72.0792 57.7097 72.3374 57.5616 72.6183 57.4762C72.8993 57.3908 73.1973 57.3737 73.5124 57.4249L73.5665 58.7044C73.2609 58.6693 72.9913 58.7101 72.7578 58.825C72.5262 58.9417 72.344 59.1183 72.2111 59.3594C72.0612 59.6318 72.0033 59.8729 72.0355 60.0826C72.0668 60.2943 72.1874 60.4557 72.3953 60.5705L72.6069 60.6863C72.7541 60.767 72.8964 60.7917 73.0312 60.7603C73.1669 60.7281 73.2979 60.6616 73.4232 60.5582C73.5485 60.4547 73.6994 60.3142 73.875 60.132C73.8807 60.1244 73.8874 60.1187 73.893 60.1121C73.8987 60.1054 73.9025 60.1007 73.9092 60.0969L73.9472 60.0589C74.2338 59.7552 74.4872 59.5188 74.7103 59.3556C74.9314 59.1914 75.1991 59.0907 75.5095 59.0566C75.8199 59.0224 76.1682 59.1107 76.5545 59.3223L76.6779 59.3897C77.0358 59.5862 77.3006 59.8292 77.4695 60.1196C77.6404 60.4091 77.7125 60.7347 77.6869 61.0973C77.6603 61.4608 77.536 61.8471 77.3101 62.2562C77.1582 62.5324 76.975 62.7621 76.7643 62.9444C76.5526 63.1247 76.3163 63.2519 76.0553 63.325C75.7942 63.3971 75.5123 63.4161 75.2105 63.381L75.1051 62.1547C75.3965 62.1746 75.649 62.1395 75.8597 62.0484C76.0685 61.9582 76.2261 61.8177 76.3315 61.626C76.4729 61.3697 76.5289 61.14 76.5004 60.9397C76.471 60.7413 76.3609 60.5885 76.1701 60.4832L76.0126 60.3968C75.8521 60.3085 75.6974 60.281 75.5503 60.3171C75.4041 60.3512 75.2665 60.4196 75.1393 60.523C75.0121 60.6265 74.8527 60.7765 74.6609 60.9748C74.6505 60.9872 74.64 61.0005 74.6268 61.0138C74.6144 61.0252 74.603 61.0375 74.5916 61.0441C74.5783 61.0555 74.566 61.0669 74.5575 61.0764C74.548 61.0878 74.5366 61.1001 74.5252 61.1153C74.2594 61.3849 74.0145 61.5937 73.7924 61.7465C73.5694 61.8974 73.3122 61.9848 73.0179 62.0075C72.7256 62.0294 72.3972 61.9411 72.0336 61.7418L71.8296 61.6298C71.4755 61.4352 71.2145 61.1903 71.0455 60.8961C70.8785 60.6028 70.8073 60.2706 70.8386 59.9013C70.868 59.5321 70.9971 59.1392 71.2249 58.7234L71.223 58.7253Z" fill="#606062"/>
<path d="M72.364 47.9817C70.0186 62.7745 57.1943 73.8314 42.0389 73.8314C25.0801 73.8314 11.3323 60.0836 11.3323 43.1247C11.3323 26.1659 25.0801 12.4181 42.0389 12.4181C54.9894 12.4181 66.0672 20.4348 70.5805 31.7774" stroke="#E54D38" stroke-miterlimit="2.61313"/>
<path fill-rule="evenodd" clip-rule="evenodd" d="M78.2099 34.3335C77.7552 34.7721 77.1382 35.0065 76.6209 35.1897C76.2071 35.3359 76.0885 35.3539 75.6575 35.3957L74.7378 35.5399C75.518 35.9177 75.5161 35.8456 76.2384 35.838C75.8237 36.1066 75.7629 36.2025 75.2807 36.1987C76.6618 36.2452 78.5335 35.6263 79.7969 33.9776C80.523 33.0294 80.709 32.1419 80.4176 31.3361C80.2781 30.9497 80.0057 30.6185 79.8168 30.1942C79.5188 29.525 79.7314 29.5592 79.4827 29.0239C78.7499 29.0362 78.4234 29.3419 77.5056 28.873L78.6322 28.4933L77.4154 27.9779C78.1567 28.088 78.4101 28.238 79.0318 28.0035C78.861 27.0952 78.4709 27.1626 78.9179 25.9742C78.9398 26.0207 78.9607 26.0834 78.973 26.1166C78.9853 26.1498 79.011 26.2162 79.0262 26.257C79.8491 28.5246 83.6163 29.8031 84.7667 27.117L84.1707 27.5299C82.577 28.7856 82.5143 27.9409 81.1751 26.7592L82.2809 25.2908C80.9349 24.4394 80.4518 23.6089 79.2093 24.3967C78.2146 25.0279 78.0276 26.1251 77.9593 27.0648C77.5844 26.2476 77.9716 25.9837 77.7115 25.1997C75.2219 27.08 74.7482 25.996 74.5688 29.2346L76.2906 29.5668C75.6585 29.9028 75.5721 29.6475 74.7834 30.1458L77.6318 30.5454C76.6399 30.758 75.5845 30.9649 74.6163 30.9441C74.3458 31.6882 74.211 32.6829 74.1721 33.4204L76.0287 34.2339C75.3168 34.5053 75.3082 34.3687 74.6229 34.3867C75.3624 34.7132 75.985 34.7502 76.6485 34.7028C76.994 34.6781 77.9498 34.4769 78.2118 34.3345L78.2099 34.3335ZM82.6283 25.4987L81.6876 26.7421L82.8371 27.7814C83.417 27.6523 84.0121 27.4445 84.5873 26.8398L82.6283 25.4987ZM83.9552 25.8109C85.1635 24.7536 85.863 24.4887 84.3557 23.0356C83.0174 21.7437 82.3843 22.6758 81.6838 24.1328L83.9542 25.8109H83.9552ZM85.7994 24.8713C86.6233 25.156 87.0732 25.4389 87.4434 26.1944C87.8838 27.0961 87.5544 27.6571 87.8202 28.1288C88.0034 28.4553 89.8685 30.0955 88.6517 32.0062C89.3455 32.4447 89.972 33.9767 89.3588 35.2144C87.414 39.1458 90.6212 36.8669 81.6905 41.2615C79.0062 42.5828 77.1734 52.3374 59.5995 42.5069C74.2442 50.0262 77.4705 42.6454 77.9792 41.8462L77.6774 41.0413C77.7229 41.0565 77.7789 41.0698 77.8216 41.0831L76.5194 39.3034L79.1571 41.4609C79.814 40.9407 82.3454 40.0181 83.3591 39.5388C85.1815 38.6788 86.0415 37.9081 86.4164 37.723C87.0077 37.4307 86.9318 37.686 87.506 37.3804C87.974 36.5945 88.9459 35.2837 88.9905 34.5177C89.039 33.6919 88.5416 32.6715 87.8639 32.0764C89.2867 29.5032 87.3162 29.1368 87.0476 28.3082C87.0466 26.7867 87.2782 26.3263 85.4615 25.287L84.4734 25.9315C84.5598 26.2438 84.3918 25.94 84.7193 26.3928C84.892 26.632 85.0448 26.7535 85.1958 26.9281C84.8294 27.9902 84.4364 28.6471 83.3287 28.9698C82.2381 29.2868 81.8926 29.0922 80.6853 28.8919C80.1623 29.8411 80.5999 30.3129 81.5984 30.9915C82.6947 30.2673 84.5475 29.6219 85.6903 29.0637C84.8028 29.7471 83.7578 30.2084 82.8228 30.8881C81.5718 31.7983 81.8291 33.372 83.305 33.8808C84.1555 33.7982 85.5099 32.9212 86.5237 32.7L83.8299 34.3744C83.8925 36.9855 86.8037 35.502 87.7158 35.5029C87.1368 35.9984 86.8027 36.1284 86.2266 36.2366C86.2398 36.5783 86.0595 35.9196 86.3262 36.4473L86.5816 36.9495C85.378 36.4065 85.1464 36.454 84.3225 37.499C84.2713 36.8574 84.4269 37.1488 84.1251 36.5669L82.1594 37.5826L83.2281 36.4597C82.1821 34.6477 80.8685 35.8161 79.552 36.5726C79.5396 36.565 79.534 36.5318 79.5245 36.5404C79.2938 36.752 79.6298 36.5907 79.2995 36.1683C78.524 36.8688 77.591 37.5171 76.769 37.6604C77.7846 36.7482 78.5497 36.5328 79.4789 35.1925C76.9313 36.3724 79.309 36.3401 74.4274 37.4127L75.5199 38.6713C72.194 36.9001 74.1123 45.3885 68.0215 45.4218C65.6799 45.4341 61.5206 43.3393 59.29 42.2866C78.6892 50.0404 66.2551 30.3394 74.5252 25.7426C80.4955 22.2459 79.5292 23.5529 80.8609 23.1979C81.6724 22.9815 83.2585 20.5316 85.0268 22.7613C85.7244 23.6402 85.5213 24.1157 85.7985 24.8713H85.7994Z" fill="#E54D38"/>
</svg>
